<svg width="301" height="91" fill="none" xmlns="http://www.w3.org/2000/svg"><g clip-path="url(#clip0_95_11)"><path d="M186.688 70.738c-17.413 12.835-42.651 19.683-64.381 19.683-30.47 0-57.9-11.27-78.65-30.013-1.631-1.474-.17-3.482 1.786-2.335 22.395 13.03 50.086 20.87 78.69 20.87 19.291 0 40.512-3.992 60.025-12.274 2.947-1.252 5.413 1.93 2.53 4.07z" fill="#F90"/><path d="M193.927 62.456c-2.217-2.844-14.713-1.344-20.321-.678-1.709.208-1.97-1.279-.431-2.348 9.952-7.004 26.282-4.983 28.187-2.635 1.904 2.36-.496 18.73-9.848 26.543-1.435 1.2-2.804.56-2.165-1.03 2.1-5.244 6.809-16.996 4.578-19.852z" fill="#F90"/><path d="M173.997 9.983V3.175c0-1.03.783-1.722 1.722-1.722h30.482c.978 0 1.76.704 1.76 1.722v5.83c-.013.978-.834 2.256-2.295 4.278l-15.795 22.552c5.869-.144 12.065.73 17.386 3.73 1.2.678 1.526 1.67 1.617 2.648v7.265c0 .991-1.095 2.152-2.243 1.552-9.378-4.917-21.834-5.452-32.204.052-1.056.574-2.165-.574-2.165-1.565v-6.9c0-1.108.013-3 1.122-4.682l18.3-26.243h-15.926c-.978 0-1.761-.691-1.761-1.709zM62.804 52.465H53.53c-.887-.065-1.591-.73-1.657-1.578V3.292c0-.952.796-1.709 1.788-1.709h8.647c.9.04 1.617.73 1.683 1.592v6.221h.17C66.416 3.383 70.655.58 76.368.58c5.804 0 9.43 2.804 12.039 8.817C90.65 3.383 95.75.58 101.216.58c3.887 0 8.139 1.604 10.735 5.204 2.934 4.004 2.334 9.822 2.334 14.922l-.013 30.038c0 .952-.795 1.722-1.787 1.722h-9.26c-.926-.065-1.67-.809-1.67-1.722V25.518c0-2.01.183-7.018-.261-8.922-.691-3.196-2.765-4.095-5.452-4.095-2.243 0-4.591 1.5-5.543 3.9s-.861 6.417-.861 9.117v25.225c0 .952-.796 1.722-1.787 1.722h-9.26c-.94-.065-1.67-.809-1.67-1.722l-.013-25.225c0-5.309.874-13.122-5.713-13.122-6.665 0-6.404 7.617-6.404 13.122v25.225c0 .952-.796 1.722-1.787 1.722zM234.205.579c13.76 0 21.208 11.817 21.208 26.843 0 14.517-8.23 26.034-21.208 26.034-13.513 0-20.87-11.817-20.87-26.543 0-14.817 7.448-26.334 20.87-26.334zm.078 9.717c-6.835 0-7.265 9.313-7.265 15.117 0 5.817-.092 18.235 7.187 18.235 7.186 0 7.526-10.018 7.526-16.122 0-4.017-.17-8.817-1.383-12.626-1.044-3.313-3.117-4.604-6.065-4.604zm38.973 42.169h-9.235c-.926-.065-1.669-.809-1.669-1.722l-.013-47.608c.078-.873.847-1.552 1.787-1.552h8.595c.809.04 1.474.587 1.656 1.33v7.279h.17c2.596-6.509 6.235-9.613 12.639-9.613 4.161 0 8.217 1.5 10.826 5.609 2.426 3.808 2.426 10.212 2.426 14.817v29.96c-.105.835-.874 1.5-1.787 1.5h-9.3c-.848-.065-1.552-.691-1.643-1.5V25.113c0-5.204.6-12.821-5.805-12.821-2.256 0-4.33 1.513-5.36 3.808-1.305 2.909-1.474 5.805-1.474 9.013v25.63c-.013.952-.822 1.722-1.813 1.722zM28.122 29.73v-2.008c-6.704 0-13.787 1.435-13.787 9.339 0 4.004 2.074 6.717 5.635 6.717 2.608 0 4.943-1.604 6.417-4.213 1.826-3.209 1.735-6.221 1.735-9.834zm9.352 22.604c-.613.548-1.5.587-2.191.222-3.079-2.556-3.626-3.743-5.322-6.182-5.087 5.19-8.687 6.743-15.287 6.743-7.8 0-13.878-4.813-13.878-14.452 0-7.526 4.083-12.652 9.887-15.156 5.035-2.217 12.065-2.609 17.439-3.222v-1.2c0-2.204.17-4.813-1.122-6.717-1.135-1.709-3.3-2.413-5.204-2.413-3.535 0-6.691 1.813-7.46 5.57-.157.834-.77 1.656-1.605 1.695l-9-.965c-.756-.17-1.591-.783-1.382-1.944C4.422 3.41 14.27.123 23.087.123c4.513 0 10.409 1.2 13.97 4.617 4.512 4.213 4.082 9.834 4.082 15.952v14.451c0 4.344 1.8 6.248 3.496 8.596.6.835.73 1.839-.026 2.465-1.892 1.578-5.257 4.513-7.109 6.157l-.026-.027M148.52 29.73v-2.008c-6.704 0-13.787 1.435-13.787 9.339 0 4.004 2.074 6.717 5.635 6.717 2.608 0 4.943-1.604 6.417-4.213 1.826-3.209 1.735-6.221 1.735-9.834zm9.352 22.604c-.613.548-1.5.587-2.191.222-3.079-2.556-3.626-3.743-5.322-6.182-5.087 5.19-8.687 6.743-15.287 6.743-7.8 0-13.878-4.813-13.878-14.452 0-7.526 4.083-12.652 9.887-15.156 5.035-2.217 12.065-2.609 17.439-3.222v-1.2c0-2.204.169-4.813-1.122-6.717-1.135-1.709-3.3-2.413-5.204-2.413-3.535 0-6.691 1.813-7.461 5.57-.156.834-.769 1.656-1.604 1.695l-9-.965c-.756-.17-1.591-.783-1.383-1.944C124.82 3.41 134.668.123 143.485.123c4.513 0 10.409 1.2 13.969 4.617 4.513 4.213 4.083 9.834 4.083 15.952v14.451c0 4.344 1.8 6.248 3.496 8.596.6.835.73 1.839-.027 2.465-1.891 1.578-5.256 4.513-7.108 6.157l-.026-.027" fill="#221F1F"/></g><defs><clipPath id="clip0_95_11"><path fill="#fff" transform="translate(.615)" d="M0 0h300v90.547H0z"/></clipPath></defs></svg>