<svg width="253" height="43" viewBox="0 0 253 43" fill="none" xmlns="http://www.w3.org/2000/svg">
<g clip-path="url(#clip0_156_103)">
<path d="M29.3359 25.0472C28.5269 26.9391 27.0963 28.4895 25.2867 29.4353C23.4771 30.3812 21.4 30.6642 19.4077 30.2365C17.4155 29.8087 15.6307 28.6965 14.3563 27.0885C13.0819 25.4806 12.3962 23.4758 12.4157 21.4145C12.4352 19.3531 13.1586 17.362 14.4631 15.779C15.7677 14.196 17.5731 13.1185 19.5731 12.7294C21.5731 12.3403 23.6445 12.6635 25.4359 13.6442C27.2273 14.6249 28.6283 16.2027 29.4014 18.1098H34.4718C35.0023 14.722 36.3296 11.5128 38.3419 8.75292C35.6896 5.10405 31.9667 2.39624 27.7041 1.01577C23.4416 -0.364695 18.8572 -0.347294 14.605 1.06549C10.3528 2.47828 6.65001 5.21428 4.02486 8.88318C1.39972 12.5521 -0.0136719 16.9664 -0.0136719 21.4965C-0.0136719 26.0266 1.39972 30.4409 4.02486 34.1098C6.65001 37.7787 10.3528 40.5147 14.605 41.9275C18.8572 43.3403 23.4416 43.3577 27.7041 41.9772C31.9667 40.5968 35.6896 37.8889 38.3419 34.2401C36.3598 31.5264 35.0406 28.3762 34.4925 25.0472H29.3359Z" fill="#009490"/>
<path d="M55.4469 6.01628e-06C52.1172 -0.00251702 48.8336 0.788552 45.862 2.30919C42.8904 3.82982 40.3142 6.03729 38.342 8.75293C40.3554 11.5126 41.6839 14.7217 42.2156 18.1099H48.7692V9.98888L67.4366 21.2451L48.7588 32.5014V25.0473H42.188C41.6396 28.3766 40.3218 31.5276 38.342 34.2436C40.4932 37.2003 43.3567 39.55 46.6597 41.0686C49.9626 42.5872 53.5948 43.224 57.2099 42.9185C60.8249 42.6129 64.3024 41.375 67.3108 39.3229C70.3191 37.2709 72.758 34.473 74.3948 31.196C76.0317 27.9191 76.8119 24.2723 76.6612 20.6035C76.5105 16.9347 75.4339 13.3661 73.5339 10.238C71.634 7.10991 68.9741 4.5266 65.8079 2.73438C62.6416 0.942154 59.0746 0.000777855 55.4469 6.01628e-06Z" fill="#6ABF4B"/>
<path d="M38.3421 34.2436C40.3218 31.5276 41.6396 28.3765 42.188 25.0472H34.4927C35.0403 28.3774 36.3594 31.5289 38.3421 34.2436V34.2436Z" fill="#021D49"/>
<path d="M38.342 8.75293C36.3297 11.5129 35.0024 14.722 34.4719 18.1099H42.2155C41.6839 14.7217 40.3554 11.5126 38.342 8.75293V8.75293Z" fill="#021D49"/>
<path d="M91.847 30.1168H84.8967V13.9656H91.509C94.8272 13.9656 96.6001 15.8474 96.6001 18.6406C96.5893 19.2764 96.4246 19.8999 96.1203 20.4563C95.816 21.0127 95.3814 21.4849 94.8547 21.8317C95.48 22.1679 95.9977 22.6775 96.3471 23.3008C96.6966 23.9241 96.8633 24.6353 96.8277 25.351C96.8243 28.4374 94.6926 30.1168 91.847 30.1168ZM91.2641 17.5198H88.8185V20.1523H91.2641C92.3402 20.1523 92.6748 19.4715 92.6748 18.8361C92.6748 18.2006 92.3402 17.5198 91.2641 17.5198V17.5198ZM91.4641 23.717H88.8185V26.5555H91.4641C91.6552 26.5734 91.8478 26.5488 92.0285 26.4835C92.2092 26.4182 92.3736 26.3137 92.5103 26.1774C92.6469 26.0411 92.7525 25.8762 92.8197 25.6942C92.8868 25.5123 92.9139 25.3177 92.899 25.1241C92.899 24.4398 92.5403 23.717 91.4641 23.717V23.717Z" fill="#021D49"/>
<path d="M108.124 30.1168L103.012 21.9958V30.1168H99.0869V13.9656H102.536L107.617 22.0831V13.9656H111.539V30.1168H108.124Z" fill="#021D49"/>
<path d="M118.886 30.2529C116.44 30.2529 114.447 29.799 112.832 28.1197L115.343 25.5779C116.171 26.4194 117.63 26.7126 118.906 26.7126C120.455 26.7126 121.193 26.1924 121.193 25.2602C121.213 24.9135 121.101 24.5723 120.879 24.3071C120.585 24.0512 120.215 23.9003 119.827 23.8776L117.899 23.6053C116.485 23.3993 115.409 22.907 114.691 22.1738C113.974 21.4406 113.595 20.3129 113.595 18.9268C113.595 15.9766 115.792 13.8224 119.424 13.8224C121.711 13.8224 123.435 14.3671 124.805 15.7497L122.338 18.246C121.328 17.2265 120.007 17.2929 119.31 17.2929C117.93 17.2929 117.382 18.0889 117.382 18.7907C117.385 19.0729 117.498 19.3425 117.696 19.5413C117.998 19.8219 118.387 19.9894 118.796 20.0162L120.724 20.2885C122.159 20.4945 123.19 20.9484 123.863 21.6292C124.715 22.4706 125.05 23.6716 125.05 25.1694C125.05 28.4618 122.249 30.2529 118.886 30.2529Z" fill="#021D49"/>
<path d="M131.103 17.4989V20.3339H137.022V23.8776H131.103V30.1168H127.181V13.9656H138.033V17.4989H131.103Z" fill="#021D49"/>
<path d="M145.317 30.1168V13.9656H147.021V28.5736H155.182V30.1168H145.317Z" fill="#021D49"/>
<path d="M166.972 28.5735C165.878 29.6464 164.415 30.2464 162.891 30.2464C161.368 30.2464 159.905 29.6464 158.811 28.5735C157.311 27.0548 157.311 25.4662 157.311 22.0377C157.311 18.6091 157.311 17.0205 158.811 15.5018C159.905 14.4289 161.368 13.8289 162.891 13.8289C164.415 13.8289 165.878 14.4289 166.972 15.5018C168.476 17.0205 168.476 18.6091 168.476 22.0377C168.476 25.4662 168.476 27.0548 166.972 28.5735ZM165.651 16.5213C165.289 16.1543 164.858 15.8632 164.385 15.6646C163.911 15.466 163.404 15.3638 162.891 15.3638C162.379 15.3638 161.871 15.466 161.398 15.6646C160.924 15.8632 160.494 16.1543 160.132 16.5213C159.121 17.5687 159.011 18.6545 159.011 22.0377C159.011 25.4208 159.121 26.5101 160.132 27.5541C160.494 27.921 160.924 28.2121 161.398 28.4107C161.871 28.6093 162.379 28.7115 162.891 28.7115C163.404 28.7115 163.911 28.6093 164.385 28.4107C164.858 28.2121 165.289 27.921 165.651 27.5541C166.658 26.5066 166.772 25.4208 166.772 22.0377C166.772 18.6545 166.658 17.5652 165.651 16.5213Z" fill="#021D49"/>
<path d="M182.287 28.392C181.753 28.9625 181.113 29.4201 180.404 29.7384C179.694 30.0566 178.93 30.2292 178.154 30.2461C177.378 30.263 176.607 30.1238 175.884 29.8367C175.162 29.5496 174.503 29.1203 173.946 28.5736C172.442 27.0548 172.442 25.4662 172.442 22.0377C172.442 18.6091 172.442 17.0205 173.946 15.5018C174.481 14.9595 175.117 14.5315 175.818 14.243C176.519 13.9545 177.27 13.8115 178.027 13.8224C181.076 13.8224 183.139 15.8195 183.608 18.6545H181.904C181.455 16.612 180.02 15.3656 178.027 15.3656C177.514 15.3633 177.006 15.4642 176.532 15.6626C176.059 15.8611 175.629 16.1529 175.267 16.5213C174.26 17.5687 174.146 18.6545 174.146 22.0377C174.146 25.4208 174.26 26.5346 175.267 27.582C175.657 27.9625 176.119 28.2589 176.625 28.4532C177.131 28.6476 177.671 28.7358 178.212 28.7127C178.753 28.6895 179.284 28.5553 179.772 28.3184C180.26 28.0814 180.695 27.7465 181.052 27.3341C181.704 26.5381 181.949 25.6548 181.949 24.4048V23.1724H178.027V21.6466H183.652V24.2128C183.652 26.0772 183.273 27.3271 182.287 28.392Z" fill="#021D49"/>
<path d="M188.181 30.1168V13.9656H189.885V30.1168H188.181Z" fill="#021D49"/>
<path d="M199.167 30.2529C196.77 30.2529 195.201 29.6419 193.697 28.1197L194.863 26.9396C196.187 28.2803 197.419 28.7097 199.212 28.7097C201.544 28.7097 202.979 27.5995 202.979 25.7141C203.002 25.342 202.947 24.9692 202.815 24.6209C202.683 24.2727 202.479 23.9572 202.216 23.6961C201.703 23.2422 201.299 23.1025 200.147 22.921L198.284 22.6277C197.212 22.504 196.196 22.0796 195.349 21.4022C194.542 20.676 194.138 19.6775 194.138 18.3822C194.138 15.6379 196.087 13.8224 199.25 13.8224C201.289 13.8224 202.634 14.3426 204.003 15.5926L202.903 16.7028C201.916 15.7951 200.864 15.3063 199.181 15.3063C197.053 15.3063 195.818 16.5073 195.818 18.3019C195.794 18.6465 195.846 18.9921 195.97 19.3139C196.094 19.6357 196.287 19.9256 196.536 20.1628C197.162 20.6428 197.899 20.9518 198.678 21.0601L200.426 21.3359C201.93 21.5628 202.668 21.8806 203.341 22.4706C203.786 22.8686 204.138 23.3622 204.371 23.9156C204.604 24.4689 204.711 25.0679 204.686 25.6687C204.683 28.5072 202.472 30.2529 199.167 30.2529Z" fill="#021D49"/>
<path d="M213.509 15.5018V30.1168H211.785V15.5018H207.173V13.9656H218.114V15.5018H213.509Z" fill="#021D49"/>
<path d="M221.656 30.1168V13.9656H223.36V30.1168H221.656Z" fill="#021D49"/>
<path d="M233.515 30.2529C232.759 30.2615 232.008 30.1174 231.308 29.829C230.607 29.5407 229.97 29.1139 229.435 28.5735C227.934 27.0548 227.934 25.4662 227.934 22.0377C227.934 18.6091 227.934 17.0205 229.435 15.5018C229.97 14.9615 230.607 14.5346 231.308 14.2463C232.008 13.958 232.759 13.8139 233.515 13.8224C236.385 13.8224 238.516 15.5925 239.055 18.6336H237.309C236.881 16.6574 235.516 15.3656 233.515 15.3656C233.004 15.3591 232.496 15.4562 232.022 15.6511C231.548 15.8459 231.118 16.1346 230.756 16.5003C229.745 17.5477 229.635 18.6545 229.635 22.0377C229.635 25.4208 229.748 26.5346 230.756 27.582C231.118 27.9477 231.548 28.2364 232.022 28.4313C232.496 28.6261 233.004 28.7232 233.515 28.7167C235.512 28.7167 236.923 27.4249 237.351 25.4488H239.055C238.537 28.4828 236.364 30.2529 233.515 30.2529Z" fill="#021D49"/>
<path d="M247.481 30.2529C245.067 30.2529 243.515 29.6419 242.011 28.1197L243.173 26.9396C244.498 28.2803 245.729 28.7097 247.523 28.7097C249.854 28.7097 251.289 27.5995 251.289 25.7141C251.313 25.342 251.257 24.9692 251.126 24.6209C250.994 24.2727 250.79 23.9572 250.527 23.6961C250.013 23.2422 249.609 23.1025 248.457 22.921L246.595 22.6277C245.523 22.504 244.506 22.0796 243.659 21.4022C242.852 20.676 242.449 19.6775 242.449 18.3822C242.449 15.6379 244.398 13.8224 247.561 13.8224C249.603 13.8224 250.948 14.3426 252.314 15.5926L251.217 16.7028C250.23 15.7951 249.175 15.3063 247.492 15.3063C245.363 15.3063 244.129 16.5073 244.129 18.3019C244.105 18.6465 244.157 18.9921 244.281 19.3139C244.405 19.6357 244.598 19.9256 244.846 20.1628C245.477 20.6395 246.218 20.9437 246.998 21.0461L248.747 21.3219C250.251 21.5489 250.993 21.8666 251.665 22.4566C252.11 22.8551 252.462 23.3488 252.694 23.902C252.927 24.4553 253.035 25.054 253.01 25.6548C253 28.5072 250.803 30.2529 247.481 30.2529Z" fill="#021D49"/>
</g>
<defs>
<clipPath id="clip0_156_103">
<rect width="253" height="43" fill="white"/>
</clipPath>
</defs>
</svg>
