<svg width="238" height="53" viewBox="0 0 238 53" fill="none" xmlns="http://www.w3.org/2000/svg">
<g clip-path="url(#clip0_156_63)">
<path d="M16.9997 12.6149L21.9688 9.76323V21.638L23.1032 22.2875L24.2375 21.638V9.76323L29.2097 12.6149L30.3441 10.6604L23.1032 6.50983L15.8623 10.6604L16.9997 12.6149Z" fill="#00A3E0"/>
<path d="M14.05 38.6935L9.08084 35.8449L19.4328 29.909V28.607L18.2954 27.9545L7.94651 33.8904V28.1902H5.6748V36.4943L12.9157 40.6479L14.05 38.6935Z" fill="#00A3E0"/>
<path d="M23.1063 0L-0.00610352 13.2553V39.7477L23.1063 52.997L46.2187 39.7477V13.2553L23.1063 0ZM43.9379 38.4458L23.1063 50.4112L2.26864 38.4458V14.5512L23.1063 2.60091L43.9379 14.5512V38.4458Z" fill="#00A3E0"/>
<path d="M32.1568 14.3065L37.1259 17.1551L23.1034 25.1995L9.08084 17.1551L14.05 14.3065L12.9157 12.3521L5.6748 16.5057V24.8098H7.94651V19.1096L21.969 27.151V43.2367L16.9999 40.3851L15.8625 42.3396L23.1034 46.4902L30.3443 42.3396L29.2099 40.3851L24.2377 43.2367V27.151L38.2633 19.1096V24.8098H40.532V16.5057L33.2911 12.3521L32.1568 14.3065Z" fill="#00A3E0"/>
<path d="M38.2631 28.1902V33.8904L27.9112 27.9545L26.7769 28.604V29.909L37.1257 35.8449L32.1566 38.6935L33.2909 40.6479L40.5318 36.4943V28.1902H38.2631Z" fill="#00A3E0"/>
<path d="M44.2358 42.9105H44.8654C45.2577 42.9105 45.4523 43.0706 45.4523 43.3848C45.4574 43.4461 45.4486 43.5079 45.4265 43.5654C45.4044 43.6229 45.3696 43.6747 45.3246 43.7171C45.2365 43.7853 45.1313 43.8282 45.0204 43.8409L45.5009 44.575H45.2272L44.7741 43.8591H44.5004V44.575H44.248L44.2358 42.9105ZM44.4883 43.6536H44.7498H44.917C44.966 43.6494 45.0142 43.6382 45.06 43.6204C45.1003 43.6026 45.1342 43.5731 45.1573 43.5358C45.1868 43.4889 45.2006 43.4339 45.1968 43.3787C45.1981 43.3313 45.1866 43.2843 45.1634 43.2428C45.1402 43.2105 45.1101 43.1837 45.0752 43.1643C45.0363 43.1479 44.9954 43.1367 44.9535 43.131C44.91 43.1279 44.8663 43.1279 44.8228 43.131H44.4883V43.6536Z" fill="#00A3E0"/>
<path d="M44.7803 45.4299C44.4448 45.4293 44.117 45.3299 43.8384 45.1443C43.5597 44.9587 43.3427 44.6953 43.2147 44.3872C43.0868 44.0792 43.0536 43.7403 43.1194 43.4136C43.1852 43.0868 43.3471 42.7867 43.5845 42.5513C43.822 42.3159 44.1243 42.1556 44.4534 42.0908C44.7825 42.026 45.1236 42.0596 45.4335 42.1873C45.7434 42.3149 46.0082 42.531 46.1945 42.8081C46.3809 43.0852 46.4803 43.411 46.4803 43.7443C46.4795 44.1916 46.3 44.6203 45.9813 44.9364C45.6626 45.2524 45.2307 45.4299 44.7803 45.4299ZM44.7803 42.3426C44.5014 42.3432 44.2289 42.4259 43.9972 42.5803C43.7656 42.7347 43.5852 42.9538 43.4788 43.21C43.3725 43.4661 43.345 43.7479 43.3998 44.0196C43.4546 44.2913 43.5892 44.5407 43.7867 44.7364C43.9841 44.9322 44.2356 45.0654 44.5092 45.1192C44.7828 45.173 45.0664 45.1451 45.3241 45.0389C45.5817 44.9328 45.8019 44.7531 45.9568 44.5227C46.1118 44.2922 46.1944 44.0214 46.1944 43.7443C46.1944 43.5599 46.1578 43.3774 46.0867 43.2072C46.0156 43.0369 45.9114 42.8823 45.7801 42.7521C45.6487 42.6219 45.4928 42.5187 45.3213 42.4484C45.1497 42.3782 44.9659 42.3422 44.7803 42.3426Z" fill="#00A3E0"/>
<path d="M71.6697 33.2439C70.8699 34.3133 69.4862 35.7814 67.7619 35.7814H63.9119C63.2379 35.7669 62.5795 35.5773 62.0021 35.2316C61.1445 34.6273 60.3864 33.8946 59.7547 33.0597C59.4195 32.5403 59.248 31.9334 59.262 31.3167V21.6833C59.2492 21.0762 59.4209 20.4793 59.7547 19.9705C60.1257 19.4509 61.3574 18.1369 62.0021 17.7684C62.5853 17.4361 63.2402 17.2476 63.9119 17.2186H67.7619C69.4862 17.2186 70.8699 18.729 71.6697 19.756C71.908 20.0997 72.1243 20.4579 72.3175 20.8284L69.176 21.7135C69.176 21.7135 68.2637 20.5807 67.7923 20.3058C67.7555 20.2818 67.7115 20.2712 67.6676 20.2756H64.0366C63.9933 20.2768 63.9508 20.2871 63.9119 20.3058C63.3627 20.6572 62.891 21.1155 62.5251 21.6531C62.5 21.763 62.4898 21.8758 62.4947 21.9884V31.2865C62.4947 31.655 63.4496 32.4495 63.9119 32.6941C63.9423 32.7244 64.0974 32.7244 64.1278 32.7244H67.6372C67.6906 32.7262 67.7436 32.7158 67.7923 32.6941C68.4371 32.3921 69.176 31.2562 69.176 31.2562L72.3175 32.0809C72.1486 32.4926 71.9312 32.883 71.6697 33.2439Z" fill="#101820"/>
<path d="M75.1519 35.6304V31.7758H78.938V35.6304H75.1519Z" fill="#101820"/>
<path d="M92.1151 35.6304V28.0784H85.4034V35.6304H82.1707V17.3394H85.4034V25.0183H92.1151V17.3394H95.3478V35.6304H92.1151Z" fill="#101820"/>
<path d="M98.5806 35.6304V31.7758H102.37V35.6304H98.5806Z" fill="#101820"/>
<path d="M125.123 26.1179C124.632 26.7229 124.076 27.272 123.463 27.7551C123.22 27.9378 122.95 28.0815 122.663 28.1811L126.312 35.6455H122.812L119.394 28.4258H115.86V35.6455H112.621V17.3394H121.273C122.054 17.3457 122.815 17.58 123.463 18.0131C124.078 18.5115 124.636 19.0757 125.126 19.6956C125.489 20.2515 125.681 20.9001 125.68 21.5625V24.251C125.685 24.9143 125.491 25.5641 125.123 26.1179V26.1179ZM122.444 21.5867C122.445 21.514 122.435 21.4417 122.414 21.3722C122.228 21.0339 121.736 20.4237 121.428 20.3934H115.86V25.3476H121.273C121.55 25.3476 122.167 24.7646 122.414 24.3386C122.433 24.3 122.443 24.2577 122.444 24.2148V21.5867Z" fill="#101820"/>
<path d="M142.795 33.0295C142.397 33.549 141.195 34.8661 140.548 35.2316C139.969 35.5735 139.311 35.7628 138.638 35.7814H133.961C133.287 35.7669 132.628 35.5773 132.051 35.2316C131.403 34.8661 130.171 33.549 129.803 33.0295C129.467 32.5107 129.295 31.9034 129.311 31.2865V21.7135C129.295 21.0966 129.467 20.4893 129.803 19.9705C130.171 19.4509 131.403 18.1369 132.051 17.7684C132.628 17.4227 133.287 17.2331 133.961 17.2186H138.638C139.311 17.2372 139.969 17.4265 140.548 17.7684C141.195 18.1369 142.397 19.4509 142.795 19.9705C143.132 20.4893 143.303 21.0966 143.288 21.7135V31.2865C143.303 31.9034 143.132 32.5107 142.795 33.0295ZM132.543 31.2562C132.543 31.2562 132.543 31.3469 132.574 31.3771C132.934 31.8994 133.394 32.3468 133.927 32.6941C133.976 32.7158 134.029 32.7262 134.082 32.7244H138.516C138.568 32.724 138.62 32.7138 138.668 32.6941C139.202 32.3471 139.663 31.8997 140.025 31.3771C140.043 31.3393 140.053 31.2982 140.055 31.2562V21.8041C140.055 21.8041 140.055 21.6833 140.025 21.6531C139.662 21.1232 139.202 20.6661 138.668 20.3058C138.621 20.284 138.569 20.2736 138.516 20.2756H134.082C134.082 20.2756 133.961 20.2756 133.927 20.3058C133.399 20.6674 132.944 21.1245 132.586 21.6531C132.566 21.7011 132.556 21.7523 132.556 21.8041L132.543 31.2562Z" fill="#101820"/>
<path d="M159.762 33.3044C159.282 33.9149 158.734 34.4692 158.128 34.9567C157.471 35.3899 156.701 35.624 155.911 35.6304H147.26V17.3394H155.911C156.706 17.3471 157.479 17.5924 158.131 18.0433C158.737 18.5308 159.285 19.0851 159.765 19.6956C160.125 20.2624 160.307 20.9228 160.288 21.5927V23.8553C160.288 25.1391 159.795 25.8128 159.071 26.5166C159.78 27.2174 160.288 27.8609 160.288 29.1447V31.4707C160.299 32.1202 160.115 32.7582 159.762 33.3044V33.3044ZM157.052 23.7949V21.6229C157.048 21.5705 157.038 21.5188 157.021 21.4689C156.745 20.9795 156.158 20.3995 155.881 20.3995H150.492V25.0183H155.911C156.188 25.0183 156.806 24.4655 157.021 24.0063C157.046 23.9387 157.057 23.8667 157.052 23.7949V23.7949ZM157.052 31.3469V29.1749C157.053 29.123 157.042 29.0715 157.021 29.0239C156.745 28.5345 156.158 27.9847 155.881 27.9847H150.492V32.5703H155.911C156.188 32.5703 156.806 32.0205 157.021 31.5614C157.042 31.4917 157.052 31.4195 157.052 31.3469Z" fill="#101820"/>
<path d="M164.658 35.6304V17.3394H167.89V35.6304H164.658Z" fill="#101820"/>
<path d="M182.238 35.6304L175.852 23.4868V35.6304H172.631V17.3394H176.11L182.424 29.6341V17.3394H185.656V35.6304H182.238Z" fill="#101820"/>
<path d="M203.052 33.0295C202.681 33.5792 201.449 34.8661 200.804 35.2316C200.219 35.5599 199.565 35.7481 198.894 35.7814H193.539C191.714 35.7814 190.428 34.3133 189.628 33.2439C189.417 32.944 189.232 32.6267 189.075 32.2954L192.116 31.2865C192.503 31.8123 192.958 32.2855 193.469 32.6941C193.538 32.7183 193.612 32.7286 193.685 32.7244H198.736C198.799 32.7272 198.861 32.7169 198.919 32.6941C199.381 32.4495 200.306 31.5311 200.306 31.2865V29.474C200.306 29.3598 200.27 29.2485 200.203 29.1554C200.137 29.0623 200.043 28.992 199.935 28.9544L191.93 26.6888C190.361 26.2629 189.528 24.7615 189.528 23.3659V21.7135C189.51 21.1005 189.671 20.4953 189.99 19.9705C190.633 19.1254 191.402 18.3828 192.271 17.7684C192.853 17.4357 193.507 17.2471 194.178 17.2186H198.739C200.585 17.2186 201.847 18.729 202.647 19.756C202.887 20.0915 203.091 20.4509 203.255 20.8284L200.156 21.7135C199.782 21.1768 199.326 20.7018 198.803 20.3058C198.803 20.3058 198.773 20.2756 198.618 20.2756H194.278C194.215 20.2726 194.152 20.2829 194.093 20.3058C193.6 20.5505 192.767 21.4084 192.767 21.6531V23.1816C192.761 23.2925 192.79 23.4023 192.851 23.4956C192.912 23.5888 193 23.6608 193.104 23.7012L201.139 26.0272C202.711 26.4532 203.541 27.9847 203.541 29.3501V31.2774C203.567 31.8979 203.395 32.5107 203.052 33.0295V33.0295Z" fill="#101820"/>
<path d="M220.511 33.0295C220.109 33.549 218.908 34.8661 218.263 35.2316C217.684 35.5735 217.027 35.7628 216.353 35.7814H211.673C210.999 35.7669 210.341 35.5773 209.763 35.2316C209.119 34.8661 207.887 33.549 207.516 33.0295C207.181 32.5101 207.009 31.9032 207.023 31.2865V21.7135C207.009 21.0968 207.181 20.4899 207.516 19.9705C207.887 19.4509 209.119 18.1369 209.763 17.7684C210.341 17.4227 210.999 17.2331 211.673 17.2186H216.353C217.027 17.2372 217.684 17.4265 218.263 17.7684C218.908 18.1369 220.109 19.4509 220.511 19.9705C220.846 20.4899 221.017 21.0968 221.003 21.7135V31.2865C221.017 31.9032 220.846 32.5101 220.511 33.0295V33.0295ZM210.256 31.2562C210.256 31.2562 210.256 31.3469 210.286 31.3771C210.649 31.899 211.109 32.3462 211.643 32.6941C211.69 32.716 211.742 32.7264 211.795 32.7244H216.217C216.27 32.7241 216.322 32.7139 216.372 32.6941C216.909 32.349 217.373 31.9025 217.737 31.3801C217.757 31.3429 217.769 31.3015 217.771 31.2593V21.8041C217.771 21.8041 217.771 21.6833 217.737 21.6531C217.375 21.1234 216.916 20.6662 216.384 20.3058C216.335 20.2836 216.282 20.2732 216.229 20.2756H211.795C211.795 20.2756 211.673 20.2756 211.643 20.3058C211.11 20.6669 210.65 21.1239 210.286 21.6531C210.267 21.7011 210.256 21.7523 210.256 21.8041V31.2562Z" fill="#101820"/>
<path d="M234.582 35.6304L228.195 23.4868V35.6304H224.975V17.3394H228.454L234.767 29.6341V17.3394H238V35.6304H234.582Z" fill="#101820"/>
</g>
<defs>
<clipPath id="clip0_156_63">
<rect width="238" height="53" fill="white"/>
</clipPath>
</defs>
</svg>
