<svg width="154" height="71" viewBox="0 0 154 71" fill="none" xmlns="http://www.w3.org/2000/svg">
<g clip-path="url(#clip0_156_41)">
<path d="M123.864 16.0579L130.017 22.8389L135.94 16.0579H148.589L136.227 29.9587L148.758 43.9732H135.599L129.504 37.1384L123.465 43.9732H110.758L123.18 30.0165L110.758 16.0579H123.864Z" fill="#FF5900"/>
<path d="M110.758 16.0579V25.4897H96.6902V34.1446H110.758V43.9731H86.3513V0H110.758V9.80165H96.6902V16.0579H110.758Z" fill="#FF5900"/>
<path d="M76.0558 0V17.9959H75.9422C73.6612 15.376 70.8141 14.4649 67.5103 14.4649C60.7417 14.4649 55.6426 19.0682 53.8533 25.1508C51.8099 18.4483 46.5455 14.3388 38.7397 14.3388C32.4008 14.3388 27.3946 17.1839 24.7831 21.8202V16.0579H11.6798V9.80165H25.9793V0H0V43.9731H11.6798V25.4897H23.3223C22.9752 26.8471 22.7893 28.3017 22.7893 29.8368C22.7893 39.0083 29.7975 45.4463 38.7397 45.4463C46.2603 45.4463 51.2169 41.9153 53.8368 35.4793H43.8264C42.4731 37.4153 41.4463 37.9876 38.7397 37.9876C35.6012 37.9876 32.8946 35.25 32.8946 32.0041H53.2769C54.1612 39.2893 59.8368 45.5723 67.624 45.5723C70.9835 45.5723 74.0599 43.9194 75.9401 41.1302H76.0537V43.9773H86.3492V0H76.0558ZM33.2211 25.6198C33.8698 22.8264 36.0372 21.0021 38.7417 21.0021C41.719 21.0021 43.7748 22.7707 44.3161 25.6198C44.5434 25.6198 33.2211 25.6198 33.2211 25.6198ZM69.8058 37.2789C66.0103 37.2789 63.6508 33.7417 63.6508 30.0496C63.6508 26.1033 65.7025 22.3079 69.8058 22.3079C74.0599 22.3079 75.7541 26.1033 75.7541 30.0496C75.7541 33.7913 73.9587 37.2789 69.8058 37.2789Z" fill="#2A007C"/>
<path d="M86.3533 65.9608V50.2025H95.0599V51.3781H87.7892V57.1881H94.752V58.3637H87.7892V64.781H95.3843V65.9587H86.3533V65.9608Z" fill="#2A007C"/>
<path d="M96.4236 65.9608L100.669 60.3017L96.6426 54.9484H98.2748L101.562 59.3223L104.783 54.9484H106.415L102.324 60.3017L106.589 65.9608H104.936L101.409 61.2789L98.0579 65.9608H96.4236V65.9608Z" fill="#2A007C"/>
<path d="M109.351 70.0929H108.023V58.2355C108.023 57.1467 108.023 56.0392 107.957 54.9483H109.264L109.308 56.6033C110.132 55.2954 111.221 54.688 112.855 54.688C116.25 54.688 117.707 57.4938 117.707 60.4525C117.707 63.4153 116.25 66.221 112.855 66.221C111.331 66.221 110.134 65.6343 109.351 64.3698V70.0929V70.0929ZM116.293 60.4525C116.293 58.1033 115.312 55.7954 112.702 55.7954C110.244 55.7954 109.351 57.8202 109.351 60.4525C109.351 63.0868 110.244 65.1095 112.702 65.1095C115.314 65.1095 116.293 62.8037 116.293 60.4525Z" fill="#2A007C"/>
<path d="M124.533 55.969C122.335 55.969 121.57 57.8202 121.57 59.7334V65.9607H120.242V58.188C120.242 57.1219 120.221 56.0372 120.178 54.9483H121.488L121.572 56.5372C122.225 55.2768 123.316 54.688 124.773 54.688C124.969 54.688 125.186 54.7086 125.382 54.7314V56.0599C125.076 56.0124 124.837 55.969 124.533 55.969Z" fill="#2A007C"/>
<path d="M127.008 60.6921C127.008 63.1715 128.182 65.2169 130.597 65.2169C132.467 65.2169 133.339 63.9772 133.665 62.7376H134.928C134.339 65.0434 132.924 66.221 130.422 66.221C127.07 66.221 125.589 63.7396 125.589 60.6508C125.589 57.4958 127.134 54.688 130.595 54.688C134.099 54.688 135.035 57.7541 135.035 60.6921H127.008V60.6921ZM127.05 59.6921H133.622C133.622 57.5372 132.601 55.688 130.51 55.688C128.618 55.6859 127.31 57.1219 127.05 59.6921Z" fill="#2A007C"/>
<path d="M140.219 66.221C137.957 66.221 136.26 65.1529 136.26 62.7376H137.589C137.589 64.3905 138.676 65.2169 140.287 65.2169C141.789 65.2169 142.963 64.4979 142.963 63.0227C142.963 61.6942 141.593 61.345 140.157 60.9318C138.417 60.4318 136.523 59.8863 136.523 57.7541C136.523 55.3843 138.502 54.688 140.353 54.688C142.483 54.688 144.074 55.5124 144.138 57.7975H142.81C142.746 56.4938 141.81 55.7541 140.395 55.7541C139.285 55.7541 137.936 56.188 137.936 57.6239C137.936 58.9318 139.285 59.3016 140.721 59.6921C142.465 60.1694 144.378 60.6921 144.378 62.8264C144.376 65.3058 142.463 66.221 140.219 66.221Z" fill="#2A007C"/>
<path d="M149.426 66.221C147.161 66.221 145.465 65.1529 145.465 62.7376H146.793C146.793 64.3905 147.88 65.2169 149.494 65.2169C150.996 65.2169 152.169 64.4979 152.169 63.0227C152.169 61.6942 150.797 61.345 149.362 60.9318C147.622 60.4318 145.729 59.8863 145.729 57.7541C145.729 55.3843 147.709 54.688 149.56 54.688C151.69 54.688 153.281 55.5124 153.345 57.7975H152.016C151.952 56.4938 151.016 55.7541 149.601 55.7541C148.492 55.7541 147.143 56.188 147.143 57.6239C147.143 58.9318 148.492 59.3016 149.93 59.6921C151.671 60.1694 153.587 60.6921 153.587 62.8264C153.583 65.3058 151.667 66.221 149.426 66.221V66.221Z" fill="#2A007C"/>
</g>
<defs>
<clipPath id="clip0_156_41">
<rect width="154" height="70.093" fill="white"/>
</clipPath>
</defs>
</svg>
