<svg width="333" height="85" fill="none" xmlns="http://www.w3.org/2000/svg"><path d="M0 0h314.697v84.669H0V0z" fill="#000"/><path d="M7.514 7.515h299.611v69.582H7.515V7.515z" fill="#FFDB00"/><path d="M330.128 71.303c.918.975 1.376 2.123 1.376 3.5 0 1.376-.458 2.523-1.376 3.556-.918.975-2.008 1.434-3.327 1.434-1.32 0-2.41-.46-3.327-1.434-.918-.975-1.377-2.18-1.377-3.557 0-1.377.459-2.581 1.377-3.5.917-.974 2.007-1.433 3.327-1.433 1.319 0 2.466.459 3.327 1.434zm.573-.574c-1.089-1.147-2.351-1.663-3.9-1.663-1.492 0-2.811.573-3.844 1.663-1.09 1.148-1.606 2.467-1.606 4.073 0 1.606.516 2.983 1.606 4.073 1.033 1.147 2.352 1.721 3.844 1.721 1.491 0 2.811-.574 3.9-1.721 1.09-1.147 1.607-2.467 1.607-4.073 0-1.549-.517-2.925-1.607-4.073zm-3.04 3.844c-.229.115-.574.115-.975.115h-.975v-2.295h.918c.573 0 1.032.057 1.262.23.286.171.401.458.401.917-.057.516-.229.86-.631 1.033zm-3.04 3.384h1.033v-2.524h.86c.573 0 .975.058 1.205.23.401.23.573.688.573 1.434v.516l.058.172v.115h.975v-.058c0-.057-.058-.172-.058-.344v-.918c0-.344-.114-.63-.344-.975a1.404 1.404 0 00-1.032-.63c.344-.058.63-.173.86-.288.402-.286.574-.688.574-1.261 0-.804-.287-1.32-.918-1.607-.344-.115-.918-.23-1.664-.23h-2.122v6.368zm-30.059-19.618c-.344-2.237-1.606-4.991-3.728-7.687-3.155-4.015-6.884-6.253-9.523-5.908v-.058h-19.389c-8.776-9.465-17.84-19.274-19.733-21.511-3.441-4.073-5.621-4.13-6.425-3.958H29.37c-4.704-.115-6.941 1.205-7.973 2.524-1.435 1.893-1.377 4.646.229 8.203h.057c1.033 2.352 2.983 4.876 5.507 7.228 4.761 4.245 9.924 6.137 12.735 4.818h12.85c8.948 9.637 18.298 19.79 20.249 22.085 3.442 4.073 5.908 3.671 6.195 3.671h203.354c.975.173 7.745 1.377 10.899-2.18 1.377-1.778 1.779-4.187 1.09-7.227zm-5.449-6.597l.115.115a16.446 16.446 0 011.548 2.352h-8.26c-.516-.861-.975-1.664-1.32-2.467h7.917zm-12.678 8.547c-.344-.344-.688-.746-1.032-1.147h8.49c.401.401.803.803 1.204 1.147h-8.662zm9.867.975c.287.23.574.402.861.574h-9.236c-.172-.172-.344-.401-.516-.574h8.891zm-11.874-3.155c-.345-.401-.689-.745-1.09-1.147H282c.114.115.172.23.287.344.229.287.458.517.688.803h-8.547zm-2.008-2.18c-.402-.401-.803-.86-1.205-1.319h9.236c.229.459.516.86.803 1.32h-8.834zm8.547-9.063c1.033-.803 4.13.402 7.343 3.9h-7.4c-.402-1.146-.517-2.122-.459-2.81.057-.516.229-.86.516-1.09zm-1.09 6.769h-9.637c-.459-.459-.918-.975-1.377-1.434h10.326c.229.459.459.975.688 1.434zm-11.874-2.41c-.287-.344-.631-.688-.918-1.032h11.53c.058.344.172.688.287 1.033h-10.899zm10.727-4.589c-.115.345-.23.689-.287 1.09 0 .23-.057.46-.057.689 0 .23 0 .516.057.746H266.11c-.746-.86-1.549-1.664-2.352-2.525h14.972zm-38.147-22.2c.23.288.574.69 1.033 1.148H40.269a244.68 244.68 0 01-2.41-2.581h201.405a8.3 8.3 0 011.319 1.434zM38.433 26.56c.574.631 1.262 1.377 2.008 2.18h-4.015c-.287-.287-.574-.574-.86-.803a32.285 32.285 0 00-1.607-1.32h4.475v-.057zm-5.85-.975a14.212 14.212 0 00-2.18-1.262h5.85c.345.344.747.803 1.205 1.262h-4.876zm203.354-4.417l.172-.057s.688-.058 1.95.86H36.885c-.23-.23-.344-.401-.402-.459l-.172-.172c-.057-.057-.115-.115-.172-.115l199.798-.057zM35.336 23.29h-7.228c-.344-.115-.688-.23-1.033-.287h7.974c.057 0 .172.115.287.287zm-2.926-1.836c.689.115 1.148.287 1.55.516h-9.638c1.32-.688 3.729-1.09 8.088-.516zm-9.407 1.549h.172c-.058 0-.172 0-.172.057v-.057zm-.172 3.728c-.058-.63.114-1.147.401-1.491.287-.344.803-.516 1.492-.574 2.237-.115 5.621 1.492 8.719 4.016H23.29c-.287-.688-.402-1.32-.46-1.95zm.917 2.983H34.59c1.262 1.205 2.352 2.41 3.155 3.614H26.272c-1.032-1.204-1.893-2.41-2.524-3.614zm4.819 5.966c-.459-.401-.918-.86-1.377-1.32h11.244a10.344 10.344 0 011.376 3.156h-8.89c-.803-.574-1.606-1.148-2.352-1.836zm11.415 2.868c0 .517-.114.975-.401 1.262-.975 1.09-3.786.574-7.056-1.32l7.457.058zm-2.524-8.834h3.901c1.033 1.148 2.18 2.352 3.327 3.614h-4.474c-.689-1.204-1.606-2.41-2.754-3.614zm8.203 4.647a159.45 159.45 0 012.926 3.155h-6.712c-.114-.975-.516-2.065-1.09-3.155h4.876zm3.901 4.13c.115.172.287.287.402.459h-8.031c0-.172.057-.287.057-.46h7.572zm-8.375 2.467c.23-.287.459-.631.574-.975h9.12c.287.344.631.688.918.975H41.187zm31.148 19.331c-.63-.688-1.376-1.549-2.237-2.467h2.467V56.79H69.18c-.631-.688-1.263-1.377-1.95-2.18h5.334v-.975h-6.253c-1.032-1.09-2.065-2.237-3.212-3.442h9.465v-.975H62.182a108.79 108.79 0 00-2.524-2.754h12.907v-1.032H58.74l-2.007-2.18h15.832v-.975h-16.75c-.46-.459-.918-.975-1.377-1.434h18.127V39.81H53.52c-.401-.459-.803-.86-1.205-1.32h20.25v-.974H51.398c-.287-.287-.517-.574-.804-.86h21.97v-1.033H49.62c-.402-.46-.804-.86-1.205-1.32h24.092v-1.032h-25.01c-.401-.459-.803-.86-1.205-1.32h26.273V30.92h-27.19c-.402-.459-.804-.86-1.205-1.32h28.395v-.975h-29.37a620 620 0 01-2.008-2.18h201.289c.574.632 1.205 1.377 1.95 2.18h-2.352v.976h3.327c.402.401.804.86 1.205 1.319h-4.532v1.032h5.45c.401.402.803.861 1.204 1.32h-6.654v1.032h7.572c.402.402.803.86 1.205 1.32h-8.777v1.032h9.695c.287.287.516.574.803.86h-10.498v.976h11.416c.401.459.803.86 1.204 1.32h-12.62v1.032h13.538c.459.459.861.975 1.32 1.434h-14.858v.975h15.833c.631.746 1.319 1.434 2.007 2.18h-17.782v1.032h18.758c.86.918 1.72 1.836 2.524 2.754h-21.34v.975h22.258c.286.344.631.688.917 1.033h-23.174v.975h24.092c.459.459.918.975 1.32 1.434h-25.412v.975h26.387c.401.459.803.86 1.204 1.32h-27.591v1.835h.057v-.86h28.452c.344.401.746.803 1.09 1.147h-29.599v1.032h30.517c.402.402.746.804 1.09 1.148H72.335v.057zm.918.975h201.404c.402.46.861.918 1.205 1.32H74.401c-.287-.345-.689-.746-1.148-1.32zm5.737 4.475c-.173 0-1.492.114-3.672-2.123H276.78a237.264 237.264 0 011.95 2.065l-199.74.058zm203.87-.058c-.86-.229-1.376-.401-1.778-.688h9.752c-2.467 1.434-6.54 1.032-7.974.688zm9.121-1.663h-12.046c-.23-.23-.574-.631-1.09-1.148h10.268a5.97 5.97 0 001.606.402 4.59 4.59 0 001.778-.172c-.115.344-.287.63-.516.918zm.172-2.926c-.287.23-.688.287-1.205.23-1.663-.172-4.474-1.893-7.113-5.22-.229-.287-.401-.574-.631-.86h8.203c.115.229.23.458.345.745.401 1.09.745 2.122.917 3.04.058.975-.114 1.721-.516 2.065z" fill="#000"/><path d="M108.646 56.56V30.289h9.867c4.647 0 8.318 1.377 8.318 6.597 0 2.696-1.377 4.646-2.696 5.736 2.237.746 3.442 3.155 3.442 6.023 0 5.909-3.5 7.916-8.892 7.916h-10.039zm6.77-10.956v4.876h2.982c1.664 0 2.926-.459 2.926-2.41 0-2.294-1.606-2.466-3.729-2.466h-2.179zm0-9.178v4.36h2.81c1.377 0 2.352-.746 2.352-2.295 0-2.065-1.319-2.065-2.753-2.065h-2.409zM147.08 56.56V30.288h6.769v8.891h6.425v-8.891h6.769v26.273h-6.769V46.407h-6.425v10.21h-6.769v-.056zm24.782-26.273h6.768v15.718c0 2.581.402 4.818 3.213 4.818 2.409 0 3.155-1.95 3.155-4.818V30.288h6.769v14.857c0 8.433-3.041 12.104-9.924 12.104-6.425 0-9.981-3.098-9.981-12.161v-14.8zm37.573 14.34l-.23-5.965v-8.375h6.482V56.56h-6.367l-7.343-14.284.23 5.966v8.317h-6.482V30.288h6.367l7.343 14.34zm9.12-14.34h18.93v6.884h-6.08V56.56h-6.769V37.17h-6.081v-6.883zM98.264 50.078a3.574 3.574 0 00-3.557 3.557 3.574 3.574 0 003.557 3.557 3.574 3.574 0 003.556-3.557c0-2.008-1.548-3.557-3.556-3.557zm34.648 0a3.574 3.574 0 00-3.557 3.557 3.575 3.575 0 003.557 3.557 3.574 3.574 0 003.556-3.557 3.537 3.537 0 00-3.556-3.557zm-52.546-1.09c2.065 2.525 4.073 2.525 5.22 2.18 1.32-.401 1.721-1.434 1.721-3.556V30.288h6.77v16.12c0 6.94-2.582 10.497-8.032 10.84-5.277.288-6.711-.688-9.694-3.957l4.015-4.302z" fill="#000"/></svg>