<svg width="83" height="90" viewBox="0 0 83 90" fill="none" xmlns="http://www.w3.org/2000/svg">
<path d="M7.51271 89.3917L8.12022 86.1468H4.86674L6.22476 78.8599H2.31387L0.359863 89.3917H7.51271Z" fill="#3776C4"/>
<path d="M11.5845 89.3917L12.1623 87.9884H14.7084L14.7804 89.3917H18.5483L17.1673 78.8599H12.98L7.45386 89.3917H11.5845ZM13.957 83.7526C14.0386 83.5455 14.1249 83.3106 14.217 83.0499C14.3082 82.7882 14.3975 82.5162 14.4838 82.2327C14.4789 82.3245 14.4751 82.4219 14.4732 82.5249C14.4713 82.628 14.4694 82.776 14.4694 82.9669C14.4694 83.2552 14.4819 83.6342 14.5069 84.1039C14.5107 84.2194 14.5156 84.3082 14.5202 84.3693L14.5634 85.4996H13.2111L13.957 83.7526Z" fill="#3776C4"/>
<path d="M22.9596 89.3917L23.5028 86.4418L23.5161 86.3558C23.7138 85.2474 23.8223 84.4473 23.8415 83.9519L25.8022 89.3916H29.6785L31.6383 78.8598H27.7975L26.7782 84.3404C26.6717 83.8087 26.4846 83.1777 26.2139 82.4493C26.1755 82.3386 26.1467 82.2574 26.1275 82.2049L24.9125 78.8598H21.0285L19.0764 89.3916L22.9596 89.3917Z" fill="#3776C4"/>
<path d="M34.9716 89.3917C36.2826 89.3917 37.3709 89.2818 38.2337 89.0633C39.0965 88.8457 39.8556 88.4915 40.5111 88.0027C41.2098 87.4852 41.753 86.8389 42.1388 86.0647C42.5237 85.2905 42.7166 84.458 42.7166 83.5721C42.7166 82.627 42.4968 81.7964 42.0543 81.0785C41.6148 80.3625 40.9766 79.7973 40.1426 79.3849C39.7616 79.2074 39.274 79.0756 38.678 78.9897C38.083 78.9028 37.3421 78.8598 36.4534 78.8598H33.5905L31.6384 89.3916L34.9716 89.3917ZM36.8373 82.0256H36.9102C37.5033 82.0256 37.9717 82.1841 38.3162 82.5029C38.6608 82.8217 38.8335 83.257 38.8335 83.8088C38.8335 84.5573 38.5926 85.1463 38.1108 85.5778C37.629 86.0093 36.9611 86.226 36.1069 86.226H36.0637L36.8373 82.0256Z" fill="#3776C4"/>
<path d="M44.7706 89.157C45.571 89.4816 46.3858 89.642 47.216 89.642C48.527 89.642 49.6124 89.2754 50.4733 88.5384C51.3342 87.8014 51.7641 86.883 51.7641 85.7794C51.7641 85.0797 51.5933 84.5021 51.2507 84.0467C50.9081 83.5904 50.3245 83.178 49.5011 82.8085C49.4032 82.7655 49.2707 82.7084 49.1028 82.6356C48.4665 82.3674 48.1479 82.1162 48.1479 81.8814C48.1479 81.741 48.2016 81.6303 48.311 81.5464C48.4185 81.4622 48.5625 81.4203 48.741 81.4203C49.0356 81.4203 49.3571 81.5109 49.7065 81.6933C50.0558 81.8765 50.4455 82.1544 50.8735 82.5286L52.3572 79.9453C51.8255 79.5042 51.2439 79.1729 50.6096 78.9524C49.9761 78.7319 49.2842 78.6221 48.5318 78.6221C47.2294 78.6221 46.1766 78.9687 45.3714 79.6608C44.5662 80.3548 44.1631 81.2503 44.1631 82.3472C44.1631 83.0441 44.3694 83.6379 44.7811 84.1286C45.1938 84.6203 45.8532 85.0527 46.7591 85.4279C46.8273 85.4566 46.9213 85.4947 47.0423 85.5424C47.5912 85.7618 47.8667 85.9691 47.8667 86.161C47.8667 86.286 47.8024 86.3864 47.6776 86.4627C47.5519 86.539 47.3849 86.5772 47.1718 86.5772C46.6948 86.5772 46.215 86.4408 45.7361 86.1647C45.2562 85.8888 44.807 85.4917 44.3876 84.9743L42.4922 87.7285C43.211 88.3576 43.9702 88.833 44.7706 89.1566" fill="#3776C4"/>
<path d="M57.2311 89.3917L58.5977 82.0533H60.7888L61.3819 78.8599H53.0582L52.4507 82.0533H54.7147L53.3547 89.3917H57.2311Z" fill="#3776C4"/>
<path d="M63.6888 89.3917L64.2665 87.9884H66.8137L66.8856 89.3917H70.6526L69.2706 78.8599H65.0842L59.5591 89.3917H63.6888ZM66.0612 83.7526C66.1438 83.5455 66.2301 83.3106 66.3213 83.0499C66.4135 82.7882 66.5017 82.5162 66.5891 82.2327C66.5842 82.3245 66.5804 82.4219 66.5776 82.5249C66.5757 82.628 66.5746 82.776 66.5746 82.9669C66.5746 83.2552 66.5872 83.6342 66.6111 84.1039C66.6149 84.2194 66.6198 84.3082 66.6244 84.3693L66.6676 85.4996H65.3163L66.0612 83.7526Z" fill="#3776C4"/>
<path d="M74.9994 89.3917L75.7154 85.5635L76.8651 89.3917H80.7923L79.2664 85.3421C80.0956 85.1645 80.7376 84.7864 81.1925 84.2079C81.6484 83.6313 81.8768 82.9029 81.8768 82.0256C81.8768 80.9898 81.4814 80.2022 80.6906 79.6657C79.9007 79.1282 78.7414 78.8599 77.2126 78.8599H73.1347L71.1807 89.3917H74.9994ZM76.4678 81.4795H76.6914C77.1684 81.4795 77.5168 81.5493 77.7356 81.6906C77.9554 81.8318 78.0658 82.0553 78.0658 82.3627C78.0658 82.7617 77.9285 83.0548 77.6531 83.2438C77.3786 83.433 76.9496 83.5292 76.367 83.5292H76.0839L76.4678 81.4795Z" fill="#3776C4"/>
<path d="M2.15063 29.0437L24.5296 46.471L15.6818 74.9438L42.3968 58.3766L67.8977 75.8497L58.0087 46.4891L82.6401 29.0437H53.1505L48.5179 16.6837L42.3968 0.358002L37.0003 14.7486L35.0827 19.8646L31.6402 29.0437H2.15063Z" fill="#3776C4"/>
<path d="M35.0821 19.8645L34.3498 21.8158C21.6229 25.624 13.4854 33.3195 13.4854 33.3195C20.4674 24.4564 35.0821 19.8645 35.0821 19.8645Z" fill="#110F0E"/>
<path d="M48.5339 16.7314L49.39 18.9911C49.39 18.9911 53.1425 18.0469 59.1562 18.7724C63.522 19.2984 69.2871 20.5882 72.2795 22.9424C76.199 26.024 76.4265 27.8627 76.8353 29.6498C78.0206 34.8174 72.6432 40.7096 72.6432 40.7096C75.5608 38.1711 80.2088 32.0976 79.0226 27.5648C77.8335 23.0121 73.2815 18.9538 64.3502 16.9586C56.6935 15.2478 48.5339 16.7312 48.5339 16.7312" fill="#110F0E"/>
<path d="M3.37656 49.6545C4.93804 54.6579 10.8365 61.2154 25.6202 61.287C31.3987 61.3141 40.2013 60.9243 51.6835 57.2078C64.898 52.9299 74.5576 43.0664 74.5576 43.0664C61.7088 53.1285 52.1393 57.5696 33.1838 59.2011C28.6356 59.5934 9.0639 59.6756 5.11175 48.2741C3.37656 43.2697 4.76433 39.474 8.58116 34.2968C2.1625 40.337 1.92833 45.0139 3.37656 49.6545" fill="#110F0E"/>
<path d="M69.7141 74.094V73.5336H70.0893C70.2803 73.5336 70.4848 73.5755 70.4848 73.7991C70.4848 74.0778 70.2765 74.0941 70.0433 74.0941L69.7141 74.094ZM69.7141 74.3259H70.0308L70.5097 75.1068H70.8178L70.3014 74.3135C70.5682 74.2802 70.7727 74.1398 70.7727 73.8161C70.7727 73.4591 70.5596 73.3015 70.1316 73.3015H69.4396V75.1068H69.7141V74.3259ZM70.0481 75.7665C70.9051 75.7665 71.6335 75.1068 71.6335 74.2008C71.6335 73.3015 70.9051 72.6438 70.0481 72.6438C69.1795 72.6438 68.4463 73.3015 68.4463 74.2008C68.4463 75.1068 69.1795 75.7665 70.0481 75.7665ZM68.7611 74.2008C68.7611 73.4591 69.3254 72.9025 70.0481 72.9025C70.7592 72.9025 71.3197 73.4591 71.3197 74.2008C71.3197 74.9541 70.7592 75.5068 70.0481 75.5068C69.3254 75.5068 68.7611 74.9541 68.7611 74.2008Z" fill="#100F0D"/>
</svg>
