<svg width="234" height="56" viewBox="0 0 234 56" fill="none" xmlns="http://www.w3.org/2000/svg">
<path d="M53.9037 17.0642C54.1126 14.4227 52.7546 12.8906 50.143 12.8906C47.2702 12.8906 45.0764 15.4264 44.1885 20.2868C43.5617 23.8793 43.7706 27.2076 47.9492 27.2076C50.613 27.2076 52.18 25.3585 52.9113 22.9283H60.8505C58.9702 29.4793 53.6425 33.4415 47.009 33.4415C38.7041 33.4415 34.5778 28.2642 36.0403 20.0227C37.5028 11.7811 43.8751 6.65662 50.9264 6.65662C58.6046 6.65662 62.2086 10.5132 61.7385 17.0113L53.9037 17.0642Z" fill="#F26523"/>
<path d="M27.6308 14.2113C27.683 13.4717 27.3174 12.7849 26.6906 12.4151C26.0638 12.0981 25.3326 11.8868 24.6013 11.9396C22.721 11.9396 21.7808 12.4679 21.6241 13.4189C20.9451 17.3811 36.3013 14.8981 34.6299 24.4604C33.5853 30.5358 28.0487 33.4943 20.8929 33.4943C14.0504 33.4943 10.2897 29.4264 10.9165 24.7245H19.0647C19.0125 25.5698 19.4304 26.3622 20.1094 26.7849C20.7884 27.2075 21.5719 27.4717 22.4076 27.4189C24.5491 27.4189 26.0638 26.7321 26.2728 25.4641C27.004 21.5547 11.5955 24.3019 13.3192 14.2641C14.3116 8.66414 19.5348 5.86414 26.0638 5.86414C33.2719 5.86414 35.9357 9.56225 35.7268 14.2113H27.6308Z" fill="#F26523"/>
<path d="M64.8723 7.18491H73.0205L71.6103 15.6906H79.1839L80.5942 7.18491H88.8469L84.5116 32.8604H76.3112L77.9304 22.9811H70.2522L68.4763 32.966H60.3281L64.8723 7.18491Z" fill="#F26523"/>
<path d="M87.332 32.8604L91.7195 7.13208H99.3977L106.188 19.7057L108.173 7.13208H115.851L111.359 32.9132H103.837L97.0472 21.7132L95.1669 32.9132L87.332 32.8604Z" fill="#F26523"/>
<path d="M118.933 7.13208H139.251L138.259 13.1019H126.036L125.462 16.8528H133.558L132.67 22.7698H124.417L123.79 26.8377H136.43L135.386 32.8076H114.597L118.933 7.13208Z" fill="#F26523"/>
<path d="M179.261 7.13208H199.579L198.587 13.1019H186.364L185.842 16.8528H193.886L192.998 22.7698H184.745L184.118 26.8377H196.759L195.714 32.8076H174.926L179.261 7.13208Z" fill="#F26523"/>
<path d="M142.071 7.18491H150.22L145.78 32.8604H137.736L142.071 7.18491Z" fill="#F26523"/>
<path d="M153.197 7.13207H165.158C165.158 7.13207 173.933 7.02641 175.187 14.317C176.44 21.6075 171.635 28.6868 169.023 30.3774C166.412 32.0679 164.479 32.9132 158.629 32.9132H148.705L153.197 7.13207ZM158.002 26.4679C164.427 26.4679 165.158 24.6717 166.046 23.5623C167.143 22.1887 168.24 17.5924 167.299 15.3208C166.15 12.4151 160.405 13.2075 160.405 13.2075L158.002 26.4679Z" fill="#F26523"/>
<path d="M201.825 7.13207H215.353C215.353 7.13207 222.352 6.60377 223.345 11.2528C224.337 15.9019 222.404 19.4415 218.278 20.8151C218.278 20.8151 222.352 21.5019 221.725 25.2C221.099 28.8981 220.367 32.8075 220.367 32.8075H212.376L213.316 26.8906C213.316 26.8906 214.204 23.8264 210.287 23.8264H207.257L205.69 32.7547H197.49L201.825 7.13207ZM208.197 18.2792C208.197 18.2792 212.376 18.4906 213.995 17.8566C215.614 17.2226 216.45 14.8981 214.988 13.7358C213.943 12.8906 209.085 13.1019 209.085 13.1019L208.197 18.2792Z" fill="#F26523"/>
<path d="M6.79028 49.6604L8.67064 38.5132H94.1747L92.7122 47.1245L102.897 38.566H219.741L217.86 49.6604H6.79028Z" fill="#F26523"/>
<path d="M228.933 9.08679C228.986 10.1962 228.098 11.1472 227.001 11.2C225.904 11.2528 224.964 10.3547 224.912 9.24528C224.859 8.13584 225.747 7.1849 226.844 7.13207H226.896C228.046 7.07924 228.933 7.97735 228.933 9.08679ZM225.434 9.08679C225.434 9.93207 226.061 10.6189 226.896 10.6717H226.949C227.784 10.6717 228.463 9.9849 228.463 9.13962V9.08679C228.516 8.2415 227.889 7.50188 227.053 7.44905C226.217 7.39622 225.486 8.03018 225.434 8.87547C225.434 8.98113 225.434 9.03396 225.434 9.08679ZM226.635 10.1434H226.165V8.13584C226.426 8.08301 226.688 8.08301 226.896 8.08301C227.158 8.08301 227.367 8.13584 227.575 8.2415C227.68 8.34716 227.784 8.50565 227.784 8.66414C227.784 8.87547 227.575 9.08679 227.367 9.13962C227.575 9.24528 227.68 9.40377 227.732 9.61509C227.732 9.77358 227.784 9.93207 227.889 10.0906H227.419C227.367 9.93207 227.314 9.77358 227.262 9.61509C227.21 9.40377 227.105 9.29811 226.844 9.29811H226.635V10.1434ZM226.635 9.03396H226.844C227.105 9.03396 227.314 8.9283 227.314 8.76981C227.314 8.61132 227.21 8.45282 226.896 8.45282C226.792 8.45282 226.74 8.45282 226.635 8.45282V9.03396V9.03396Z" fill="#F26523"/>
</svg>
