<svg width="100" height="118" viewBox="0 0 100 118" fill="none" xmlns="http://www.w3.org/2000/svg">
<path fill-rule="evenodd" clip-rule="evenodd" d="M3.40967 35.6679L3.8341 83.5835L14.6575 96.8818L47.129 113.979L87.0275 94.5598L95.3043 74.929L94.4554 11.3921L64.3193 10.5477L32.9101 15.6138L4.25982 32.0781L3.40967 35.6679Z" fill="#301506"/>
<path d="M49.9004 1.04166C30.9865 1.04166 14.4883 4.68377 0.861328 11.8661V69.2869C0.861328 81.3692 5.42566 91.4727 14.0586 98.5113C22.0741 105.051 46.8636 115.828 49.9014 117.137C52.7822 115.89 77.8655 104.946 85.7538 98.5113C94.3819 91.4765 98.9474 81.37 98.9474 69.2869V11.8661C85.3185 4.68282 68.8203 1.04071 49.8987 1.04071L49.9004 1.04166ZM77.9066 12.1599C83.5469 12.2332 89.0852 12.5798 94.4387 13.0746V69.2864C94.4387 80.0886 90.4978 88.8144 82.894 95.0439C76.101 100.608 55.6171 109.736 49.9014 112.242C44.1091 109.702 23.5739 100.459 16.903 95.0462C9.34416 88.9233 5.36537 79.9904 5.36537 69.2887V36.4431C27.0874 16.6295 53.4646 11.8432 77.9047 12.1612L77.9066 12.1599ZM51.1791 38.3343C46.5254 38.3343 42.7705 39.3689 39.6791 41.3536V96.6592H48.2144V78.7917C49.0662 79.0416 50.3026 79.2751 52.054 79.2751C61.5219 79.2751 66.9637 70.7862 66.9637 58.3916C66.9637 46.0212 61.3604 38.3343 51.1793 38.3343L51.1791 38.3343ZM80.3434 38.3343C74.7301 38.4961 68.8599 42.5405 68.8957 49.3967C68.91 53.9112 70.1683 57.2873 77.2028 61.3926C80.9568 63.5844 82.4694 65.0287 82.5341 67.6918C82.6059 70.6523 80.5493 72.4374 77.4197 72.4254C74.6968 72.404 71.4417 70.901 69.262 68.9708V76.7833C71.9346 78.3683 75.2695 79.416 78.6384 79.416C87.0703 79.416 90.8355 73.4919 90.9982 68.0634C91.1585 63.1156 89.7839 59.3719 82.6536 55.2049C79.4713 53.3486 76.9582 52.1286 77.042 49.0396C77.1257 46.0242 79.6426 44.9649 82.0592 44.9864C85.0405 45.0126 87.9244 46.6548 89.7046 48.4707V41.0932C88.2044 39.9437 85.0281 38.1913 80.3432 38.3341L80.3434 38.3343ZM9.72393 39.1933V65.8703C9.72393 74.8638 14.0011 79.4167 22.4426 79.4167C27.666 79.4167 32.0408 78.2143 35.2997 76.0105V39.1935H26.7832V71.1804C25.8548 71.8134 24.4778 72.2178 22.7454 72.2178C18.8358 72.2178 18.2516 68.6519 18.2516 66.246V39.1939H9.72374L9.72393 39.1933ZM51.2365 45.1689C56.1869 45.1689 58.2389 49.1001 58.2389 58.6076C58.2389 67.8842 55.8921 72.3661 50.9823 72.3661C49.8266 72.3661 48.8222 72.0814 48.2119 71.853V45.7833C48.9034 45.4406 50.0784 45.1697 51.2365 45.1697V45.1689Z" fill="#FAB80A"/>
</svg>
